<?xml version="1.0" encoding="utf-8"?>
<!-- Generator: Adobe Illustrator 16.0.0, SVG Export Plug-In . SVG Version: 6.00 Build 0)  -->
<!DOCTYPE svg PUBLIC "-//W3C//DTD SVG 1.1//EN" "http://www.w3.org/Graphics/SVG/1.1/DTD/svg11.dtd">
<svg version="1.1" id="Layer_1" xmlns="http://www.w3.org/2000/svg" xmlns:xlink="http://www.w3.org/1999/xlink" x="0px" y="0px"
	 width="800px" height="50px" viewBox="0 0 800 50" enable-background="new 0 0 800 50" xml:space="preserve">
<g>
	<path fill="#FFFFFF" d="M43.966,32.506H29.178l-2.821,6.825h-7.553L33,7.481h7.28l14.242,31.85h-7.735L43.966,32.506z
		 M41.646,26.91l-5.051-12.195l-5.05,12.195H41.646z"/>
	<path fill="#FFFFFF" d="M95.38,33.416v5.915H70.719V7.481h24.07v5.916H78.044v6.916h14.788v5.732H78.044v7.371H95.38z"/>
	<path fill="#FFFFFF" d="M124.819,14.852L114.49,39.331h-7.326L96.882,14.852h7.325l6.78,16.653l7.007-16.653H124.819z"/>
	<path fill="#FFFFFF" d="M131.757,38.08c-2.047-1.076-3.648-2.57-4.8-4.482c-1.153-1.91-1.729-4.079-1.729-6.506
		s0.576-4.596,1.729-6.507c1.152-1.911,2.753-3.405,4.8-4.481s4.36-1.615,6.938-1.615c2.578,0,4.884,0.539,6.916,1.615
		s3.625,2.57,4.778,4.481c1.152,1.911,1.729,4.08,1.729,6.507s-0.577,4.596-1.729,6.506c-1.153,1.912-2.746,3.406-4.778,4.482
		s-4.338,1.615-6.916,1.615C136.117,39.695,133.804,39.156,131.757,38.08z M143.177,32.028c1.167-1.229,1.752-2.874,1.752-4.937
		s-0.584-3.709-1.752-4.938c-1.168-1.229-2.662-1.842-4.482-1.842c-1.82,0-3.321,0.613-4.504,1.842s-1.774,2.875-1.774,4.938
		s0.591,3.708,1.774,4.937s2.685,1.843,4.504,1.843C140.516,33.871,142.009,33.257,143.177,32.028z"/>
	<path fill="#FFFFFF" d="M156.85,5.57h7.098v33.761h-7.098V5.57z"/>
	<path fill="#FFFFFF" d="M195.206,14.852v24.479h-6.734v-2.912c-0.941,1.062-2.063,1.874-3.367,2.435
		c-1.305,0.561-2.715,0.842-4.231,0.842c-3.215,0-5.764-0.926-7.644-2.775c-1.881-1.85-2.821-4.596-2.821-8.236V14.852h7.098v12.786
		c0,3.943,1.653,5.915,4.959,5.915c1.699,0,3.063-0.553,4.095-1.661c1.031-1.106,1.547-2.753,1.547-4.937V14.852H195.206z"/>
	<path fill="#FFFFFF" d="M206.604,38.08c-2.078-1.076-3.701-2.57-4.869-4.482c-1.168-1.91-1.751-4.079-1.751-6.506
		s0.583-4.596,1.751-6.507c1.167-1.911,2.791-3.405,4.869-4.481c2.078-1.076,4.421-1.615,7.03-1.615c2.578,0,4.83,0.539,6.757,1.615
		c1.926,1.076,3.329,2.616,4.208,4.618l-5.505,2.958c-1.274-2.245-3.109-3.367-5.505-3.367c-1.851,0-3.383,0.607-4.596,1.819
		c-1.213,1.214-1.82,2.866-1.82,4.96c0,2.093,0.606,3.746,1.82,4.959c1.213,1.214,2.745,1.82,4.596,1.82
		c2.426,0,4.261-1.122,5.505-3.367l5.505,3.003c-0.88,1.942-2.283,3.458-4.208,4.55c-1.927,1.092-4.179,1.639-6.757,1.639
		C211.024,39.695,208.681,39.156,206.604,38.08z M208.719,49.637c-0.758-0.167-1.396-0.402-1.911-0.705l1.092-3.049
		c0.97,0.455,1.957,0.683,2.958,0.683c1.577,0,2.366-0.485,2.366-1.456c0-0.88-0.744-1.319-2.229-1.319h-1.547l1.183-4.823h3.776
		l-0.637,2.639c1.334,0.152,2.328,0.569,2.98,1.252c0.652,0.683,0.979,1.523,0.979,2.525c0,1.395-0.607,2.494-1.82,3.299
		c-1.213,0.803-2.836,1.205-4.868,1.205C210.25,49.887,209.477,49.803,208.719,49.637z"/>
	<path fill="#FFFFFF" d="M247.303,17.195c2.032,1.805,3.048,4.527,3.048,8.168v13.968h-6.643v-3.048
		c-1.335,2.274-3.822,3.412-7.462,3.412c-1.881,0-3.511-0.318-4.891-0.955c-1.381-0.638-2.435-1.518-3.163-2.64
		s-1.092-2.396-1.092-3.822c0-2.274,0.856-4.063,2.571-5.368c1.713-1.305,4.36-1.957,7.939-1.957h5.642
		c0-1.547-0.471-2.737-1.411-3.572c-0.94-0.834-2.351-1.251-4.231-1.251c-1.304,0-2.586,0.205-3.845,0.614
		c-1.259,0.41-2.328,0.963-3.208,1.661l-2.548-4.96c1.334-0.939,2.935-1.668,4.8-2.184c1.866-0.516,3.784-0.773,5.756-0.773
		C242.358,14.488,245.271,15.391,247.303,17.195z M240.546,11.371c-0.622-0.318-1.313-0.75-2.07-1.296
		c-0.486-0.364-0.887-0.637-1.206-0.819c-0.318-0.182-0.63-0.273-0.933-0.273c-0.637,0-1.153,0.221-1.547,0.66
		c-0.395,0.44-0.607,1.069-0.637,1.889h-3.594c0.061-2.032,0.569-3.647,1.524-4.846c0.956-1.198,2.222-1.797,3.799-1.797
		c0.789,0,1.494,0.159,2.116,0.478c0.622,0.318,1.327,0.767,2.116,1.342c0.485,0.364,0.888,0.637,1.206,0.819
		c0.318,0.182,0.629,0.273,0.933,0.273c0.606,0,1.115-0.219,1.524-0.66c0.409-0.439,0.629-1.039,0.66-1.797h3.594
		c-0.061,1.972-0.568,3.549-1.524,4.732c-0.956,1.183-2.223,1.775-3.799,1.775C241.889,11.85,241.167,11.689,240.546,11.371z
		 M241.251,34.076c0.94-0.562,1.607-1.389,2.002-2.48v-2.502h-4.869c-2.912,0-4.368,0.955-4.368,2.866
		c0,0.91,0.356,1.631,1.069,2.161c0.712,0.531,1.69,0.797,2.935,0.797C239.234,34.918,240.311,34.637,241.251,34.076z"/>
	<path fill="#FFFFFF" d="M261.749,38.08c-2.047-1.076-3.648-2.57-4.8-4.482c-1.153-1.91-1.729-4.079-1.729-6.506
		s0.576-4.596,1.729-6.507c1.152-1.911,2.753-3.405,4.8-4.481s4.36-1.615,6.938-1.615c2.578,0,4.884,0.539,6.916,1.615
		s3.625,2.57,4.778,4.481c1.152,1.911,1.729,4.08,1.729,6.507s-0.577,4.596-1.729,6.506c-1.153,1.912-2.746,3.406-4.778,4.482
		s-4.338,1.615-6.916,1.615C266.108,39.695,263.796,39.156,261.749,38.08z M273.169,32.028c1.167-1.229,1.752-2.874,1.752-4.937
		s-0.584-3.709-1.752-4.938c-1.168-1.229-2.662-1.842-4.482-1.842c-1.82,0-3.321,0.613-4.504,1.842s-1.774,2.875-1.774,4.938
		s0.591,3.708,1.774,4.937s2.685,1.843,4.504,1.843C270.507,33.871,272.001,33.257,273.169,32.028z"/>
	<path fill="#FFFFFF" d="M324.651,5.57v33.761h-6.779V36.51c-1.76,2.124-4.308,3.186-7.644,3.186c-2.306,0-4.391-0.516-6.256-1.547
		c-1.866-1.031-3.329-2.503-4.391-4.414c-1.063-1.91-1.593-4.125-1.593-6.643s0.53-4.732,1.593-6.643
		c1.062-1.912,2.525-3.383,4.391-4.414c1.865-1.031,3.951-1.547,6.256-1.547c3.124,0,5.566,0.986,7.325,2.957V5.57H324.651z
		 M315.916,32.028c1.183-1.229,1.774-2.874,1.774-4.937s-0.591-3.709-1.774-4.938s-2.67-1.842-4.459-1.842
		c-1.82,0-3.322,0.613-4.504,1.842c-1.183,1.229-1.775,2.875-1.775,4.938s0.592,3.708,1.775,4.937
		c1.183,1.229,2.684,1.843,4.504,1.843C313.246,33.871,314.732,33.257,315.916,32.028z"/>
	<path fill="#FFFFFF" d="M335.912,38.08c-2.047-1.076-3.648-2.57-4.8-4.482c-1.153-1.91-1.729-4.079-1.729-6.506
		s0.576-4.596,1.729-6.507c1.152-1.911,2.753-3.405,4.8-4.481s4.36-1.615,6.938-1.615c2.578,0,4.884,0.539,6.916,1.615
		s3.625,2.57,4.778,4.481c1.152,1.911,1.729,4.08,1.729,6.507s-0.577,4.596-1.729,6.506c-1.153,1.912-2.746,3.406-4.778,4.482
		s-4.338,1.615-6.916,1.615C340.272,39.695,337.959,39.156,335.912,38.08z M347.333,32.028c1.167-1.229,1.752-2.874,1.752-4.937
		s-0.584-3.709-1.752-4.938c-1.168-1.229-2.662-1.842-4.482-1.842c-1.82,0-3.321,0.613-4.504,1.842s-1.774,2.875-1.774,4.938
		s0.591,3.708,1.774,4.937s2.685,1.843,4.504,1.843C344.671,33.871,346.165,33.257,347.333,32.028z"/>
	<path fill="#FFFFFF" d="M380.82,37.762c-2.624-1.411-4.687-3.367-6.188-5.87s-2.252-5.331-2.252-8.485s0.751-5.983,2.252-8.486
		c1.501-2.502,3.564-4.458,6.188-5.869c2.623-1.411,5.574-2.116,8.85-2.116c2.76,0,5.255,0.485,7.485,1.456
		c2.229,0.971,4.102,2.366,5.619,4.186l-4.732,4.368c-2.154-2.487-4.823-3.731-8.008-3.731c-1.972,0-3.731,0.433-5.278,1.297
		s-2.752,2.07-3.617,3.617c-0.864,1.548-1.297,3.307-1.297,5.278c0,1.973,0.433,3.73,1.297,5.277
		c0.865,1.547,2.07,2.754,3.617,3.617c1.547,0.865,3.306,1.297,5.278,1.297c3.185,0,5.854-1.258,8.008-3.775l4.732,4.367
		c-1.518,1.851-3.397,3.262-5.642,4.231c-2.245,0.971-4.748,1.456-7.507,1.456C386.378,39.877,383.443,39.172,380.82,37.762z"/>
	<path fill="#FFFFFF" d="M425.66,17.195c2.031,1.805,3.049,4.527,3.049,8.168v13.968h-6.643v-3.048
		c-1.336,2.274-3.822,3.412-7.463,3.412c-1.881,0-3.512-0.318-4.891-0.955c-1.381-0.638-2.434-1.518-3.162-2.64
		s-1.092-2.396-1.092-3.822c0-2.274,0.855-4.063,2.57-5.368c1.713-1.305,4.359-1.957,7.939-1.957h5.643
		c0-1.547-0.471-2.737-1.41-3.572c-0.941-0.834-2.352-1.251-4.232-1.251c-1.305,0-2.586,0.205-3.844,0.614
		c-1.26,0.41-2.33,0.963-3.209,1.661l-2.547-4.96c1.334-0.939,2.934-1.668,4.799-2.184s3.785-0.773,5.756-0.773
		C420.717,14.488,423.627,15.391,425.66,17.195z M419.609,34.076c0.939-0.562,1.607-1.389,2.002-2.48v-2.502h-4.869
		c-2.912,0-4.367,0.955-4.367,2.866c0,0.91,0.355,1.631,1.068,2.161c0.713,0.531,1.691,0.797,2.936,0.797
		C417.592,34.918,418.668,34.637,419.609,34.076z"/>
	<path fill="#FFFFFF" d="M445.338,15.398c1.439-0.607,3.102-0.91,4.982-0.91v6.552c-0.789-0.061-1.32-0.091-1.592-0.091
		c-2.033,0-3.625,0.568-4.779,1.706c-1.152,1.138-1.729,2.844-1.729,5.118v11.558h-7.098V14.852h6.779v3.23
		C442.752,16.899,443.896,16.006,445.338,15.398z"/>
	<path fill="#FFFFFF" d="M471.205,38.148c-0.699,0.516-1.555,0.902-2.57,1.16c-1.018,0.257-2.086,0.387-3.209,0.387
		c-2.912,0-5.164-0.743-6.756-2.23c-1.594-1.485-2.389-3.669-2.389-6.551V20.857h-3.777v-5.459h3.777V9.438h7.098v5.961h6.098v5.459
		h-6.098v9.965c0,1.031,0.266,1.828,0.797,2.389c0.529,0.563,1.279,0.842,2.252,0.842c1.121,0,2.076-0.303,2.865-0.91
		L471.205,38.148z"/>
	<path fill="#FFFFFF" d="M479.145,38.08c-2.049-1.076-3.648-2.57-4.801-4.482c-1.152-1.91-1.729-4.079-1.729-6.506
		s0.576-4.596,1.729-6.507s2.752-3.405,4.801-4.481c2.047-1.076,4.359-1.615,6.938-1.615s4.885,0.539,6.916,1.615
		c2.033,1.076,3.625,2.57,4.777,4.481s1.73,4.08,1.73,6.507s-0.578,4.596-1.73,6.506c-1.152,1.912-2.744,3.406-4.777,4.482
		c-2.031,1.076-4.338,1.615-6.916,1.615S481.191,39.156,479.145,38.08z M490.564,32.028c1.168-1.229,1.752-2.874,1.752-4.937
		s-0.584-3.709-1.752-4.938s-2.662-1.842-4.482-1.842s-3.32,0.613-4.504,1.842s-1.775,2.875-1.775,4.938s0.592,3.708,1.775,4.937
		s2.684,1.843,4.504,1.843S489.396,33.257,490.564,32.028z"/>
	<path fill="#FFFFFF" d="M508.947,38.08c-2.049-1.076-3.648-2.57-4.801-4.482c-1.152-1.91-1.729-4.079-1.729-6.506
		s0.576-4.596,1.729-6.507s2.752-3.405,4.801-4.481c2.047-1.076,4.359-1.615,6.938-1.615s4.885,0.539,6.916,1.615
		c2.033,1.076,3.625,2.57,4.777,4.481s1.73,4.08,1.73,6.507s-0.578,4.596-1.73,6.506c-1.152,1.912-2.744,3.406-4.777,4.482
		c-2.031,1.076-4.338,1.615-6.916,1.615S510.994,39.156,508.947,38.08z M520.367,32.028c1.168-1.229,1.752-2.874,1.752-4.937
		s-0.584-3.709-1.752-4.938s-2.662-1.842-4.482-1.842s-3.32,0.613-4.504,1.842s-1.775,2.875-1.775,4.938s0.592,3.708,1.775,4.937
		s2.684,1.843,4.504,1.843S519.199,33.257,520.367,32.028z"/>
	<path fill="#FFFFFF" d="M556.268,17.219c1.865,1.819,2.797,4.52,2.797,8.098v14.015h-7.098V26.409c0-1.94-0.424-3.39-1.273-4.345
		c-0.85-0.956-2.078-1.434-3.686-1.434c-1.791,0-3.215,0.554-4.277,1.66c-1.063,1.107-1.592,2.753-1.592,4.938v12.103h-7.098V14.852
		h6.779v2.867c0.939-1.031,2.107-1.827,3.502-2.389c1.396-0.561,2.928-0.842,4.596-0.842
		C551.951,14.488,554.402,15.398,556.268,17.219z"/>
	<path fill="#FFFFFF" d="M608.068,7.481v31.85h-6.053l-15.879-19.337v19.337h-7.279V7.481h6.096l15.834,19.337V7.481H608.068z"/>
	<path fill="#FFFFFF" d="M638.963,29.094h-18.52c0.334,1.518,1.123,2.715,2.367,3.594c1.242,0.881,2.789,1.32,4.641,1.32
		c1.273,0,2.402-0.189,3.389-0.568s1.904-0.979,2.754-1.798l3.775,4.095c-2.305,2.639-5.672,3.959-10.1,3.959
		c-2.762,0-5.203-0.539-7.326-1.615s-3.762-2.57-4.914-4.482c-1.152-1.91-1.729-4.079-1.729-6.506c0-2.396,0.568-4.557,1.705-6.484
		c1.139-1.926,2.699-3.428,4.688-4.504c1.986-1.076,4.209-1.615,6.666-1.615c2.395,0,4.564,0.516,6.506,1.547
		s3.465,2.51,4.572,4.436c1.107,1.928,1.662,4.164,1.662,6.712C639.1,27.273,639.053,27.91,638.963,29.094z M622.355,21.223
		c-1.092,0.909-1.76,2.153-2.002,3.73h12.057c-0.242-1.547-0.91-2.783-2.002-3.709c-1.092-0.924-2.428-1.387-4.004-1.387
		C624.797,19.857,623.447,20.313,622.355,21.223z"/>
	<path fill="#FFFFFF" d="M659.619,38.148c-0.699,0.516-1.555,0.902-2.57,1.16c-1.018,0.257-2.086,0.387-3.209,0.387
		c-2.912,0-5.164-0.743-6.756-2.23c-1.594-1.485-2.389-3.669-2.389-6.551V20.857h-3.777v-5.459h3.777V9.438h7.098v5.961h6.098v5.459
		h-6.098v9.965c0,1.031,0.266,1.828,0.797,2.389c0.529,0.563,1.279,0.842,2.252,0.842c1.121,0,2.076-0.303,2.865-0.91
		L659.619,38.148z"/>
	<path fill="#FFFFFF" d="M702.479,14.852l-8.871,24.479h-6.826l-5.506-15.196l-5.688,15.196h-6.824l-8.826-24.479h6.688
		l5.779,16.563l6.006-16.563h6.006l5.824,16.563l5.959-16.563H702.479z"/>
	<path fill="#FFFFFF" d="M709.828,38.08c-2.049-1.076-3.648-2.57-4.801-4.482c-1.152-1.91-1.729-4.079-1.729-6.506
		s0.576-4.596,1.729-6.507s2.752-3.405,4.801-4.481c2.047-1.076,4.359-1.615,6.938-1.615s4.885,0.539,6.916,1.615
		c2.033,1.076,3.625,2.57,4.777,4.481s1.73,4.08,1.73,6.507s-0.578,4.596-1.73,6.506c-1.152,1.912-2.744,3.406-4.777,4.482
		c-2.031,1.076-4.338,1.615-6.916,1.615S711.875,39.156,709.828,38.08z M721.248,32.028C722.416,30.8,723,29.154,723,27.092
		s-0.584-3.709-1.752-4.938s-2.662-1.842-4.482-1.842s-3.32,0.613-4.504,1.842s-1.775,2.875-1.775,4.938s0.592,3.708,1.775,4.937
		s2.684,1.843,4.504,1.843S720.08,33.257,721.248,32.028z"/>
	<path fill="#FFFFFF" d="M745.137,15.398c1.439-0.607,3.1-0.91,4.98-0.91v6.552c-0.789-0.061-1.318-0.091-1.592-0.091
		c-2.033,0-3.625,0.568-4.777,1.706s-1.729,2.844-1.729,5.118v11.558h-7.098V14.852h6.779v3.23
		C742.549,16.899,743.695,16.006,745.137,15.398z"/>
	<path fill="#FFFFFF" d="M764.859,29.73l-3.412,3.367v6.233h-7.098V5.57h7.098v19.11l10.375-9.828h8.463l-10.193,10.375
		l11.104,14.104h-8.6L764.859,29.73z"/>
</g>
</svg>
