<?xml version="1.0" encoding="utf-8"?>
<!-- Generator: Adobe Illustrator 16.0.0, SVG Export Plug-In . SVG Version: 6.00 Build 0)  -->
<!DOCTYPE svg PUBLIC "-//W3C//DTD SVG 1.1//EN" "http://www.w3.org/Graphics/SVG/1.1/DTD/svg11.dtd">
<svg version="1.1" xmlns="http://www.w3.org/2000/svg" xmlns:xlink="http://www.w3.org/1999/xlink" x="0px" y="0px"
	 width="412.25px" height="157px" viewBox="0 0 412.25 157" enable-background="new 0 0 412.25 157" xml:space="preserve">
<g id="Layer_1" display="none">
	<rect x="-297.5" y="-296" display="inline" fill="#E53333" width="1024" height="768"/>
</g>
<g id="Layer_2">
	<g>
		<path fill="#FFFFFF" d="M9.654,96.709L24.985,4.721h35.436L73.49,53.033h0.879c0.921-5.692,1.716-9.76,2.388-12.2L87.438,4.721
			h35.059l15.582,91.988h-33.3l-4.649-50.387h-0.628c-0.838,4.23-1.592,7.28-2.262,9.15L83.542,96.709H63.437L51.122,57.791
			c-1.257-4.798-1.969-8.62-2.136-11.468h-1.131c-0.336,5.124-0.628,8.826-0.88,11.102l-4.021,39.285H9.654z"/>
		<path fill="#FFFFFF" d="M148.419,96.709v-82.94h57.443v22.66H179.69v7.92h23.906v21.56H179.69v8.14h27.079v22.661H148.419z"/>
		<path fill="#FFFFFF" d="M261.944,47.869h47.926c-0.075,4.62-0.188,7.994-0.34,10.12c-0.151,2.128-0.529,4.914-1.133,8.36
			c-0.605,3.448-1.625,6.509-3.059,9.185c-1.436,2.678-3.362,5.263-5.778,7.755c-4.458,4.694-9.914,8.324-16.372,10.89
			c-6.458,2.565-13.086,3.85-19.884,3.85c-13.446,0-24.663-3.812-33.65-11.44c-8.989-7.626-13.482-17.892-13.482-30.8
			c0-13.272,4.455-23.815,13.369-31.625c8.912-7.81,20.241-11.715,33.99-11.715c8.231,0,16.503,1.908,24.813,5.72
			c8.308,3.814,14.01,9.02,17.108,15.62l-29.005,10.34c-2.418-4.252-6.345-6.38-11.783-6.38c-5.288,0-9.48,1.889-12.576,5.665
			c-3.099,3.778-4.646,8.305-4.646,13.585c0,4.84,1.453,9.003,4.362,12.485c2.906,3.484,6.778,5.225,11.613,5.225
			c2.719,0,5.325-0.622,7.817-1.87c2.492-1.246,4.079-3.042,4.759-5.39h-14.05V47.869z"/>
		<path fill="#FFFFFF" d="M348.165,86.369l-2.493,10.34h-32.856l29.685-82.94h34.33l30.478,82.94H374.45l-2.832-10.34H348.165z
			 M353.717,66.679h12.463l-3.626-14.63c-0.605-2.2-1.285-5.756-2.039-10.67h-1.133L353.717,66.679z"/>
	</g>
	<rect x="-118.75" y="90.268" fill="none" width="700" height="275"/>
	<g>
		<path fill="#FFFFFF" d="M7.751,152.707v-37.398h10.96v37.398H7.751z"/>
		<path fill="#FFFFFF" d="M30.671,152.707v-37.398h10.52l9.84,20.732h0.32c-0.614-4.364-0.92-7.539-0.92-9.523v-11.209h10.48v37.398
			h-10.48l-9.64-19.642h-0.32c0.453,3.241,0.68,5.737,0.68,7.489v12.152H30.671z"/>
		<path fill="#FFFFFF" d="M70.671,127.461v-12.152h23.04v12.152l-6.04-0.348v25.594h-10.96v-25.594L70.671,127.461z"/>
		<path fill="#FFFFFF" d="M103.471,152.707v-37.398h20.28v10.218h-9.24v3.571h8.44v9.721h-8.44v3.671h9.56v10.218H103.471z"/>
		<path fill="#FFFFFF" d="M135.631,152.707v-37.398h13.24c3.706,0,6.726,1.059,9.06,3.174c2.333,2.117,3.5,5.391,3.5,9.821
			c0,2.745-0.447,4.836-1.34,6.274c-0.894,1.438-2.394,2.588-4.5,3.447v0.298c0.88,0.86,1.493,1.604,1.84,2.231l6.56,12.152h-12.64
			l-4.8-12.004h-0.2v12.004H135.631z M146.352,125.526v6.349h0.76c1.12,0,2-0.206,2.64-0.62c0.64-0.413,0.96-1.247,0.96-2.505
			c0-1.322-0.307-2.189-0.92-2.604c-0.614-0.413-1.48-0.62-2.6-0.62H146.352z"/>
		<path fill="#FFFFFF" d="M172.791,152.707v-37.398h20.28v10.218h-9.239v3.571h8.439v9.721h-8.439v3.671h9.56v10.218H172.791z"/>
		<path fill="#FFFFFF" d="M203.391,149.88l3.36-10.565l0.56,0.547c2.373,2.281,4.653,3.422,6.84,3.422
			c0.667,0,1.301-0.182,1.9-0.546c0.6-0.363,0.9-0.925,0.9-1.687c0-0.23-0.021-0.438-0.061-0.619s-0.127-0.348-0.26-0.496
			c-0.134-0.149-0.234-0.265-0.3-0.348c-0.067-0.082-0.214-0.165-0.44-0.248c-0.227-0.082-0.374-0.132-0.439-0.148
			c-0.067-0.017-0.234-0.058-0.5-0.125l-0.44-0.099l-2.2-0.496c-2.32-0.495-4.214-1.579-5.68-3.249
			c-1.467-1.669-2.2-3.893-2.2-6.671c0-2.843,0.64-5.34,1.92-7.489s2.9-3.745,4.86-4.787c1.96-1.041,4.06-1.563,6.3-1.563
			c3.466,0,6.653,1.092,9.56,3.273l-2.96,9.574c-2.239-1.886-4.359-2.828-6.359-2.828c-0.587,0-1.127,0.158-1.62,0.471
			c-0.494,0.315-0.74,0.819-0.74,1.514c0,0.198,0.021,0.372,0.061,0.521c0.039,0.149,0.119,0.281,0.239,0.397
			c0.12,0.115,0.221,0.215,0.3,0.297c0.08,0.083,0.214,0.158,0.4,0.224c0.187,0.066,0.32,0.116,0.4,0.148
			c0.08,0.033,0.22,0.083,0.42,0.149s0.326,0.099,0.38,0.099l2.479,0.694c5.334,1.488,8,5.06,8,10.714
			c0,2.149-0.373,4.092-1.119,5.827c-0.747,1.736-1.74,3.143-2.98,4.217s-2.634,1.893-4.18,2.455
			c-1.547,0.563-3.147,0.844-4.801,0.844C210.884,153.303,207.017,152.162,203.391,149.88z"/>
		<path fill="#FFFFFF" d="M236.95,149.88l3.36-10.565l0.56,0.547c2.373,2.281,4.653,3.422,6.84,3.422c0.667,0,1.301-0.182,1.9-0.546
			c0.6-0.363,0.9-0.925,0.9-1.687c0-0.23-0.021-0.438-0.061-0.619s-0.127-0.348-0.26-0.496c-0.134-0.149-0.234-0.265-0.3-0.348
			c-0.067-0.082-0.214-0.165-0.44-0.248c-0.227-0.082-0.374-0.132-0.439-0.148c-0.067-0.017-0.234-0.058-0.5-0.125l-0.44-0.099
			l-2.2-0.496c-2.32-0.495-4.214-1.579-5.68-3.249c-1.467-1.669-2.2-3.893-2.2-6.671c0-2.843,0.64-5.34,1.92-7.489
			s2.9-3.745,4.86-4.787c1.96-1.041,4.06-1.563,6.3-1.563c3.466,0,6.653,1.092,9.56,3.273l-2.96,9.574
			c-2.239-1.886-4.359-2.828-6.359-2.828c-0.587,0-1.127,0.158-1.62,0.471c-0.494,0.315-0.74,0.819-0.74,1.514
			c0,0.198,0.021,0.372,0.061,0.521c0.039,0.149,0.119,0.281,0.239,0.397c0.12,0.115,0.221,0.215,0.3,0.297
			c0.08,0.083,0.214,0.158,0.4,0.224c0.187,0.066,0.32,0.116,0.4,0.148c0.08,0.033,0.22,0.083,0.42,0.149s0.326,0.099,0.38,0.099
			l2.479,0.694c5.334,1.488,8,5.06,8,10.714c0,2.149-0.373,4.092-1.119,5.827c-0.747,1.736-1.74,3.143-2.98,4.217
			s-2.634,1.893-4.18,2.455c-1.547,0.563-3.147,0.844-4.801,0.844C244.443,153.303,240.576,152.162,236.95,149.88z"/>
		<path fill="#FFFFFF" d="M281.83,148.045l-0.88,4.662H269.35l10.48-37.398h12.12l10.76,37.398h-11.601l-1-4.662H281.83z
			 M283.79,139.166h4.399l-1.279-6.597c-0.214-0.991-0.454-2.595-0.721-4.812h-0.399L283.79,139.166z"/>
		<path fill="#FFFFFF" d="M311.87,152.707v-37.398h10.52l9.84,20.732h0.32c-0.613-4.364-0.92-7.539-0.92-9.523v-11.209h10.479
			v37.398H331.63l-9.64-19.642h-0.32c0.453,3.241,0.68,5.737,0.68,7.489v12.152H311.87z"/>
		<path fill="#FFFFFF" d="M351.87,127.461v-12.152h23.04v12.152l-6.04-0.348v25.594h-10.96v-25.594L351.87,127.461z"/>
		<path fill="#FFFFFF" d="M384.67,152.707v-37.398h20.279v10.218h-9.239v3.571h8.439v9.721h-8.439v3.671h9.56v10.218H384.67z"/>
	</g>
</g>
</svg>
